# xmcd
#
# Track frame offsets:
#	150
#	17525
#	34324
#	53875
#	72944
#	91551
#	110164
#	135436
#	154590
#	173101
#	191063
#	212329
#	234259
#
# Disc length: 3361 seconds
#
# Revision: 1
# Processed by: cddbd v1.5.1PL0 Copyright (c) Steve Scherf et al.
# Submitted via: audiograbber 1.83.01
#
DISCID=a10d1f0d
DTITLE=Giorgia - Senza Ali
DYEAR=2001
DGENRE=Pop
TTITLE0=Senza Ali
TTITLE1=Save The World
TTITLE2=Di Sole E D'azzurro
TTITLE3=Interstellare
TTITLE4=Un Posto Migliore
TTITLE5=Un Sole Dentro Al Cuore
TTITLE6=Prima Di Domani
TTITLE7=Canzone Degli Innamorati
TTITLE8=Qualcosa Cambierà
TTITLE9=Ho Bisogno Di Un Sogno
TTITLE10=Il Tempo
TTITLE11=Il Mare Sconosciuto
TTITLE12=Girasole Acoustica
EXTD=
EXTT0=
EXTT1=
EXTT2=
EXTT3=
EXTT4=
EXTT5=
EXTT6=
EXTT7=
EXTT8=
EXTT9=
EXTT10=
EXTT11=
EXTT12=
PLAYORDER=
